<svg width="24" height="24" viewBox="0 0 24 24" fill="none" xmlns="http://www.w3.org/2000/svg">
<path d="M11 22C15.9706 22 20 17.9706 20 13C20 8.02944 15.9706 4 11 4C6.02944 4 2 8.02944 2 13C2 17.9706 6.02944 22 11 22Z" stroke="white" stroke-width="2" stroke-linecap="round" stroke-linejoin="round"/>
<path d="M14.3501 4.6498L16.3001 2.6998C16.7517 2.25036 17.3629 1.99805 18.0001 1.99805C18.6372 1.99805 19.2485 2.25036 19.7001 2.6998L21.3001 4.2998C21.5238 4.52277 21.7014 4.78771 21.8225 5.07944C21.9436 5.37116 22.006 5.68393 22.006 5.9998C22.006 6.31568 21.9436 6.62844 21.8225 6.92017C21.7014 7.21189 21.5238 7.47683 21.3001 7.6998L19.3501 9.6498" stroke="white" stroke-width="2" stroke-linecap="round" stroke-linejoin="round"/>
<path d="M22 2L20.5 3.5" stroke="white" stroke-width="2" stroke-linecap="round" stroke-linejoin="round"/>
</svg>
