<svg width="24" height="24" viewBox="0 0 24 24" fill="none" xmlns="http://www.w3.org/2000/svg">
<path d="M10.5 3L8 9L12 22L16 9L13.5 3" stroke="white" stroke-width="2" stroke-linecap="round" stroke-linejoin="round"/>
<path d="M17.0001 3C17.3106 3 17.6168 3.07229 17.8945 3.21115C18.1722 3.35 18.4138 3.55161 18.6001 3.8L21.6001 7.8C21.8574 8.14316 21.9975 8.55995 21.9999 8.98885C22.0022 9.41776 21.8666 9.83605 21.6131 10.182L13.6231 21.168C13.4378 21.4255 13.194 21.6352 12.9117 21.7799C12.6294 21.9245 12.3168 22 11.9996 22C11.6824 22 11.3697 21.9245 11.0875 21.7799C10.8052 21.6352 10.5613 21.4255 10.3761 21.168L2.38609 10.182C2.1327 9.83594 1.99727 9.41759 1.99979 8.98869C2.00231 8.55979 2.14265 8.14306 2.40009 7.8L5.39809 3.803C5.58427 3.55379 5.82602 3.35144 6.10412 3.21204C6.38222 3.07264 6.68901 3.00004 7.00009 3H17.0001Z" stroke="white" stroke-width="2" stroke-linecap="round" stroke-linejoin="round"/>
<path d="M2 9H22" stroke="white" stroke-width="2" stroke-linecap="round" stroke-linejoin="round"/>
</svg>
