<svg width="20" height="20" viewBox="0 0 20 20" fill="none" xmlns="http://www.w3.org/2000/svg">
<path d="M6.00838 12.5L2.21671 5.94996C2.05321 5.66735 1.97632 5.34295 1.99558 5.01702C2.01484 4.6911 2.1294 4.37801 2.32504 4.11663L3.66671 2.33329C3.82196 2.1263 4.02326 1.95829 4.25469 1.84258C4.48611 1.72687 4.7413 1.66663 5.00005 1.66663H15C15.2588 1.66663 15.514 1.72687 15.7454 1.84258C15.9768 1.95829 16.1781 2.1263 16.3334 2.33329L17.6667 4.11663C17.8636 4.37717 17.9797 4.68983 18.0004 5.01577C18.0212 5.34171 17.9457 5.66656 17.7834 5.94996L13.9917 12.5" stroke="#90A1B9" stroke-width="1.66667" stroke-linecap="round" stroke-linejoin="round"/>
<path d="M9.1666 10L4.2666 1.83337" stroke="#90A1B9" stroke-width="1.66667" stroke-linecap="round" stroke-linejoin="round"/>
<path d="M10.8333 10L15.7333 1.83337" stroke="#90A1B9" stroke-width="1.66667" stroke-linecap="round" stroke-linejoin="round"/>
<path d="M6.66675 5.83337H13.3334" stroke="#90A1B9" stroke-width="1.66667" stroke-linecap="round" stroke-linejoin="round"/>
<path d="M9.99992 18.3333C12.3011 18.3333 14.1666 16.4679 14.1666 14.1667C14.1666 11.8655 12.3011 10 9.99992 10C7.69873 10 5.83325 11.8655 5.83325 14.1667C5.83325 16.4679 7.69873 18.3333 9.99992 18.3333Z" stroke="#90A1B9" stroke-width="1.66667" stroke-linecap="round" stroke-linejoin="round"/>
<path d="M9.99992 15V13.3334H9.58325" stroke="#90A1B9" stroke-width="1.66667" stroke-linecap="round" stroke-linejoin="round"/>
</svg>
