<svg width="40" height="40" viewBox="0 0 40 40" fill="none" xmlns="http://www.w3.org/2000/svg">
<path d="M7.50002 27.5C5.00002 29.6 4.16669 35.8333 4.16669 35.8333C4.16669 35.8333 10.4 35 12.5 32.5C13.6834 31.1 13.6667 28.95 12.35 27.65C11.7022 27.0317 10.8488 26.6744 9.95373 26.6467C9.05862 26.619 8.18481 26.9229 7.50002 27.5Z" stroke="white" stroke-width="3.33333" stroke-linecap="round" stroke-linejoin="round"/>
<path d="M20 25L15 20C15.8869 17.6991 17.0037 15.4934 18.3333 13.4167C20.2753 10.3116 22.9794 7.75509 26.1883 5.99016C29.3973 4.22523 33.0044 3.31062 36.6667 3.33334C36.6667 7.86667 35.3667 15.8333 26.6667 21.6667C24.5615 22.9979 22.3281 24.1146 20 25Z" stroke="white" stroke-width="3.33333" stroke-linecap="round" stroke-linejoin="round"/>
<path d="M15 20H6.66669C6.66669 20 7.58335 14.95 10 13.3333C12.7 11.5333 18.3334 13.3333 18.3334 13.3333" stroke="white" stroke-width="3.33333" stroke-linecap="round" stroke-linejoin="round"/>
<path d="M20 25V33.3333C20 33.3333 25.05 32.4167 26.6667 30C28.4667 27.3 26.6667 21.6667 26.6667 21.6667" stroke="white" stroke-width="3.33333" stroke-linecap="round" stroke-linejoin="round"/>
</svg>
